<?xml version="1.0" encoding="UTF-8"?>
<svg id="Layer_2" data-name="Layer 2" xmlns="http://www.w3.org/2000/svg" viewBox="0 0 129.64 32">
  <defs>
    <style>
      .cls-1 {
        font-family: Montserrat-Bold, Montserrat;
        font-size: 28.52px;
        font-weight: 700;
      }

      .cls-1, .cls-2 {
        fill: #fff;
      }

      .cls-3 {
        letter-spacing: 0em;
      }

      .cls-4, .cls-2 {
        stroke-width: 0px;
      }
    </style>
  </defs>
  <g id="Layer_1-2" data-name="Layer 1">
    <g>
      <g>
        <g>
          <path class="cls-2" d="m14.02,0c.03.16.09.32.09.48,0,1.15,0,2.31,0,3.46,0,.2.04.45-.27.46-.31.01-.32-.22-.32-.46,0-1.15,0-2.31,0-3.46,0-.16.05-.32.08-.48.14,0,.27,0,.41,0Z"/>
          <path class="cls-2" d="m16.45,4.14c.04-.14.05-.22.08-.3.26-.78.52-1.56.78-2.34.07-.22.19-.42.43-.29.11.06.19.33.15.47-.25.83-.52,1.65-.82,2.46-.04.12-.25.21-.39.25-.06.01-.16-.17-.22-.24Z"/>
          <path class="cls-2" d="m9.68,1.46c.08-.08.16-.25.26-.26.11-.01.31.09.34.19.31.87.61,1.75.88,2.64.03.09-.11.24-.17.36-.14-.07-.36-.11-.4-.22-.24-.62-.44-1.26-.65-1.9-.08-.25-.16-.49-.27-.81Z"/>
          <path class="cls-2" d="m8.14,5.05c-.11-.08-.22-.13-.3-.22-.4-.43-.81-.87-1.17-1.33-.09-.11-.04-.33-.06-.5.17.03.39,0,.49.09.42.42.81.86,1.18,1.32.09.11.1.3.1.45,0,.05-.14.11-.24.18Z"/>
          <path class="cls-2" d="m20.76,2.93c.25,0,.42.28.26.47-.44.52-.9,1.03-1.37,1.52-.06.07-.28.08-.36.02-.08-.06-.14-.29-.1-.34.46-.55.95-1.09,1.43-1.62.03-.04.1-.04.13-.05Z"/>
          <g>
            <path class="cls-2" d="m6.37,12.64s-.02.1-.03.16c-.33,1.36-.65,2.71-.98,4.07-.16.68-.33,1.36-.51,2.11.07.07.21.26.25.24.14-.07.31-.19.34-.32.35-1.37.67-2.74,1-4.11.16-.67.34-1.33.47-2,.03-.13-.1-.29-.16-.44-.12.1-.25.19-.36.3Z"/>
            <path class="cls-2" d="m4.07,12.67c-.28-.08-.4,0-.49.25-.39,1.02-.79,2.04-1.18,3.06-.18.48-.05.96.33,1.21.3.19.62.32.99.51.33-1.38.65-2.68.97-3.98.2-.83.19-.82-.61-1.05Z"/>
            <path class="cls-2" d="m13.59,8.68c.11-.07.22-.15.45-.3-.37-.15-.63-.32-.9-.35-.3-.03-.5-.15-.71-.34-1.38-1.26-3.08-.91-3.88.77-.05.11-.08.25-.16.33-.08.08-.26.18-.33.14-.1-.06-.2-.22-.21-.34-.01-.14.08-.28.13-.45-.33-.25-.68-.26-1.04-.08-.38.18-.66.45-.68.9-.04.7.41,1.23,1.2,1.45.75.21,1.14.45,1.75.99.6.53,1.27.96,2.12.97.26,0,.36-.09.36-.36.05-1.44.71-2.53,1.89-3.33Z"/>
            <path class="cls-2" d="m25.53,15.92c-.38-1-.78-1.99-1.15-2.99-.1-.27-.21-.35-.51-.27-.81.23-.81.21-.61,1.02.03.12.06.24.09.36.29,1.19.58,2.39.88,3.65.31-.15.55-.26.8-.39.55-.29.74-.79.51-1.38Z"/>
            <path class="cls-2" d="m22.54,16.4c-.03-.15-.03-.23-.05-.31-.29-1.23-.59-2.45-.89-3.68-.05-.21-.08-.49-.39-.4-.3.08-.2.35-.15.56.14.6.29,1.2.44,1.8.16.67.31,1.34.5,2,.03.12.2.22.33.27.04.02.16-.17.21-.23Z"/>
            <path class="cls-2" d="m22.54,17.5c-.07.13-.2.27-.18.39.08.42.19.83.33,1.23.03.1.22.19.33.19.08,0,.15-.17.22-.25-.13-.48-.23-.91-.37-1.32-.04-.1-.21-.16-.32-.24Z"/>
            <path class="cls-2" d="m21.56,8.87c-.3-.75-1.31-1.01-1.98-.51.07.2.18.38.19.56.01.13-.1.27-.16.41-.14-.07-.28-.13-.41-.22-.05-.03-.05-.12-.08-.18-.52-1.12-2.09-1.46-2.99-.6-.33.32-.68.45-1.12.51-2.2.3-3.45,3.01-2.24,4.88.18.28.49.53.8.67.48.23.84-.08.88-.61.01-.15.16-.31.28-.43.22-.23.59-.4.68-.67.16-.44.4-.49.8-.48.89.03,1.18-.21,1.38-1.07.12-.49.15-.51.64-.4.12.03.24.05.36.07.85.15,1.49-.1,1.92-.9.12-.23.47-.41.75-.48.38-.1.4-.27.28-.56Zm-6.07.85c-.51.15-.79.47-.86.98-.03.23-.1.44-.37.35-.13-.05-.21-.24-.25-.29.05-.85.68-1.57,1.35-1.61.13,0,.26.12.39.18-.08.13-.14.35-.26.38Z"/>
          </g>
          <path class="cls-4" d="m16.9,24.42h-.49c-.5-.24-.39-.69-.39-1.11,0-.85.11-1.72-.01-2.55-.21-1.4-.57-2.79-.88-4.18-.13-.58-.28-1.16-.4-1.64-.55.04-1.02.07-1.52.1-.12.48-.27,1.02-.39,1.57-.3,1.35-.66,2.69-.85,4.06-.13.95-.03,1.94-.02,2.92,0,.35-.07.65-.4.83h-.49c-.51-.14-1.02-.29-1.54-.41-2.3-.56-4.61-1.11-6.91-1.67-.73-.18-.84-.45-.49-1.12.27-.51.52-1.03.82-1.52.22-.36.14-.55-.22-.69-.99-.39-1.69-1.05-1.98-2.09,0-.36,0-.71,0-1.07.48-1.21.95-2.42,1.43-3.63.39-.99.97-1.3,2.01-1.06.34.08.69.17,1.15.28.12-.81.26-1.57.32-2.34.05-.55.19-1.01.65-1.35.64-.46,1.3-.54,1.99-.15.05-.04.09-.06.11-.09,1.06-1.41,2.97-1.57,4.4-.31.14.13.36.16.54.25.35.19.74.35,1.04.6.18.15.33.29.56.21.24-.09.5-.17.68-.33.94-.8,2.22-.92,3.25-.25.22.14.36.14.59.02,1.02-.56,2.62,0,2.78,1.36.09.78.3,1.55.46,2.36.37-.09.67-.16.98-.23,1.16-.29,1.71,0,2.15,1.11.47,1.18.93,2.37,1.4,3.55v1.07c-.3,1.08-1.06,1.72-2.05,2.14-.04.02-.07.04-.11.06-.23.08-.24.21-.12.41.31.55.61,1.1.9,1.66.35.67.2.99-.52,1.16-1.84.45-3.68.88-5.51,1.33-.97.24-1.93.49-2.89.74Zm2.68-16.06c.07.2.18.38.19.56.01.13-.1.27-.16.41-.14-.07-.28-.13-.41-.22-.05-.03-.05-.12-.08-.18-.52-1.12-2.09-1.46-2.99-.6-.33.32-.68.45-1.12.51-2.2.3-3.45,3.01-2.24,4.88.18.28.49.53.8.67.48.23.84-.08.88-.61.01-.15.16-.31.28-.43.22-.23.59-.4.68-.67.16-.44.4-.49.8-.48.89.03,1.18-.21,1.38-1.07.12-.49.15-.51.64-.4.12.03.24.05.36.07.85.15,1.49-.1,1.92-.9.12-.23.47-.41.75-.48.38-.1.4-.27.28-.56-.3-.75-1.31-1.01-1.98-.51Zm-5.54.02c-.37-.15-.63-.32-.9-.35-.3-.03-.5-.15-.71-.34-1.38-1.26-3.08-.91-3.88.77-.05.11-.08.25-.16.33-.08.08-.26.18-.33.14-.1-.06-.2-.22-.21-.34-.01-.14.08-.28.13-.45-.33-.25-.68-.26-1.04-.08-.38.18-.66.45-.68.9-.04.7.41,1.23,1.2,1.45.75.21,1.14.45,1.75.99.6.53,1.27.96,2.12.97.26,0,.36-.09.36-.36.05-1.44.71-2.53,1.89-3.33.11-.07.22-.15.45-.3Zm10.18,9.31c.31-.15.55-.26.8-.39.55-.29.74-.79.51-1.38-.38-1-.78-1.99-1.15-2.99-.1-.27-.21-.35-.51-.27-.81.23-.81.21-.61,1.02.03.12.06.24.09.36.29,1.19.58,2.39.88,3.65Zm-20.5,0c.33-1.38.65-2.68.97-3.98.2-.83.19-.82-.61-1.05-.28-.08-.4,0-.49.25-.39,1.02-.79,2.04-1.18,3.06-.18.48-.05.96.33,1.21.3.19.62.32.99.51Zm1.11,1.28c.07.07.21.26.25.24.14-.07.31-.19.34-.32.35-1.37.67-2.74,1-4.11.16-.67.34-1.33.47-2,.03-.13-.1-.29-.16-.44-.12.1-.25.19-.36.3-.03.03-.02.1-.03.16-.33,1.36-.65,2.71-.98,4.07-.16.68-.33,1.36-.51,2.11Zm17.71-2.58c-.03-.15-.03-.23-.05-.31-.29-1.23-.59-2.45-.89-3.68-.05-.21-.08-.49-.39-.4-.3.08-.2.35-.15.56.14.6.29,1.2.44,1.8.16.67.31,1.34.5,2,.03.12.2.22.33.27.04.02.16-.17.21-.23Zm.69,2.65c-.13-.48-.23-.91-.37-1.32-.04-.1-.21-.16-.32-.24-.07.13-.2.27-.18.39.08.42.19.83.33,1.23.03.1.22.19.33.19.08,0,.15-.17.22-.25Z"/>
        </g>
        <path class="cls-2" d="m16.27,25l-.12-.06c-.77-.37-.74-1.09-.73-1.48,0-.06,0-.11,0-.16,0-.28.01-.55.02-.82.02-.58.05-1.12-.03-1.63-.15-1.01-.39-2.04-.62-3.04-.08-.36-.17-.73-.25-1.1-.09-.39-.19-.8-.28-1.15l-.61.04s0,.03-.01.04c-.09.36-.19.73-.27,1.1-.08.37-.17.74-.25,1.1-.22.95-.46,1.94-.59,2.91-.09.63-.06,1.27-.04,1.96.01.28.02.58.02.87,0,.24,0,.96-.7,1.35l-.13.07h-.72l-.07-.02c-.16-.04-.32-.09-.49-.13-.34-.09-.69-.19-1.04-.28-1.3-.32-2.62-.64-3.9-.94-1-.24-2.01-.48-3.01-.73-.38-.09-.84-.25-1.04-.7-.2-.45-.01-.91.17-1.27.07-.13.13-.26.2-.39.18-.35.37-.71.58-1.06-.97-.42-1.72-1.25-2.07-1.86-.36-.6-.39-1.28-.1-2.01l.09-.23c.3-.75.91-2.32,1.34-3.41.4-1.01,1.03-1.51,1.95-1.51.23,0,.47.03.73.09.17.04.35.08.53.13,0-.03,0-.06.01-.09.08-.54.16-1.06.21-1.57.05-.56.19-1.27.89-1.77.47-.34.96-.51,1.45-.51.25,0,.5.04.75.13.66-.72,1.56-1.13,2.52-1.13.89,0,1.78.35,2.51.99.03.01.09.04.14.06.09.03.19.07.3.12.08.04.16.08.25.13.3.15.61.31.89.54l.04.04s.03.02.04.04c.16-.06.31-.12.4-.19.62-.53,1.4-.83,2.18-.83.62,0,1.23.18,1.76.53.34-.19.74-.28,1.16-.28.58,0,1.14.19,1.59.53.5.38.82.94.89,1.56.06.51.17,1.02.29,1.56.01.06.02.11.04.17.13-.03.26-.06.39-.09.33-.08.62-.12.87-.12,1.19,0,1.67.85,1.96,1.59.14.35.31.78.48,1.21.41,1.03.83,2.1.92,2.35.13.36.32.86.06,1.63-.23.69-1.17,1.71-2.23,2.23.24.44.49.9.76,1.41.17.32.37.81.15,1.28-.21.47-.7.64-1.06.72-.72.17-1.44.35-2.15.52-1.1.27-2.24.54-3.36.81-.66.16-1.33.34-1.98.51-.3.08-.6.16-.9.23l-.07.02h-.7Zm7.49-11.69c.02.07.04.16.06.24.03.12.06.24.09.36l.71,2.94s.08-.04.13-.07c.29-.15.36-.34.24-.66-.15-.39-.3-.78-.45-1.16-.22-.56-.44-1.13-.66-1.7-.04.01-.08.02-.12.03Zm-19.69-.03c-.17.45-.34.9-.51,1.33-.2.52-.41,1.05-.61,1.58-.06.17-.08.4.1.5.09.06.18.11.29.16.04-.17.08-.35.13-.52.23-.95.45-1.84.67-2.75.02-.09.05-.19.06-.27-.04-.01-.07-.02-.11-.03Zm13.3-4.85c-.22,0-.55.06-.83.32-.4.38-.84.58-1.44.67-.84.12-1.57.69-1.95,1.52-.38.83-.33,1.75.12,2.46.11.18.33.36.56.46,0,0,.01,0,.02,0,.01-.03.02-.07.03-.13.03-.36.29-.63.44-.79.11-.11.23-.21.34-.29.07-.06.18-.14.22-.18.28-.77.85-.86,1.25-.86.03,0,.07,0,.11,0,.04,0,.07,0,.11,0,.25,0,.41-.03.47-.09.08-.07.15-.24.22-.53.05-.21.09-.38.18-.52.15-.25.39-.38.69-.38.14,0,.29.03.46.07h.01c.11.03.22.05.33.07.12.02.24.03.34.03.27,0,.48-.07.66-.23l-.36-.18s-.07-.04-.11-.05c-.11-.05-.24-.12-.36-.2-.21-.14-.27-.34-.29-.43h0c-.21-.45-.7-.74-1.22-.74Zm-10.11.14s-.04.02-.06.03c-.32.15-.35.28-.35.41-.03.52.41.75.78.86.89.25,1.34.56,1.98,1.11.56.5,1.03.75,1.53.81.09-1.3.65-2.38,1.65-3.22-.33-.09-.56-.27-.75-.44-.43-.4-.9-.61-1.36-.61-.65,0-1.24.44-1.6,1.2,0,.01-.02.04-.02.06-.04.11-.1.29-.26.44-.03.03-.33.31-.7.31-.11,0-.22-.03-.32-.08-.27-.15-.48-.48-.51-.81,0-.03,0-.05,0-.08Zm13.07.12c.01.06.02.12.03.19.01.16-.02.3-.07.42.18-.16.41-.28.63-.36-.13-.15-.33-.24-.56-.24-.01,0-.02,0-.03,0Z"/>
        <path class="cls-4" d="m16.9,24.42h-.49c-.5-.24-.39-.69-.39-1.11,0-.85.11-1.72-.01-2.55-.21-1.4-.57-2.79-.88-4.18-.13-.58-.28-1.16-.4-1.64-.55.04-1.02.07-1.52.1-.12.48-.27,1.02-.39,1.57-.3,1.35-.66,2.69-.85,4.06-.13.95-.03,1.94-.02,2.92,0,.35-.07.65-.4.83h-.49c-.51-.14-1.02-.29-1.54-.41-2.3-.56-4.61-1.11-6.91-1.67-.73-.18-.84-.45-.49-1.12.27-.51.52-1.03.82-1.52.22-.36.14-.55-.22-.69-.99-.39-1.67-1.25-1.92-1.67s-.3-.89-.06-1.5.95-2.42,1.43-3.63c.39-.99.97-1.3,2.01-1.06.34.08.69.17,1.15.28.12-.81.26-1.57.32-2.34.05-.55.19-1.01.65-1.35.64-.46,1.3-.54,1.99-.15.05-.04.09-.06.11-.09,1.06-1.41,2.97-1.57,4.4-.31.14.13.36.16.54.25.35.19.74.35,1.04.6.18.15.33.29.56.21.24-.09.5-.17.68-.33.94-.8,2.22-.92,3.25-.25.22.14.36.14.59.02,1.02-.56,2.62,0,2.78,1.36.09.78.3,1.55.46,2.36.37-.09.67-.16.98-.23,1.16-.29,1.71,0,2.15,1.11.47,1.18,1.27,3.2,1.4,3.55s.24.68.05,1.24-1.11,1.56-2.1,1.97c-.04.02-.07.04-.11.06-.23.08-.24.21-.12.41.31.55.61,1.1.9,1.66.35.67.2.99-.52,1.16-1.84.45-3.68.88-5.51,1.33-.97.24-1.93.49-2.89.74Zm2.68-16.06c.07.2.18.38.19.56.01.13-.1.27-.16.41-.14-.07-.28-.13-.41-.22-.05-.03-.05-.12-.08-.18-.52-1.12-2.09-1.46-2.99-.6-.33.32-.68.45-1.12.51-2.2.3-3.45,3.01-2.24,4.88.18.28.49.53.8.67.48.23.84-.08.88-.61.01-.15.16-.31.28-.43.22-.23.59-.4.68-.67.16-.44.4-.49.8-.48.89.03,1.18-.21,1.38-1.07.12-.49.15-.51.64-.4.12.03.24.05.36.07.85.15,1.49-.1,1.92-.9.12-.23.47-.41.75-.48.38-.1.4-.27.28-.56-.3-.75-1.31-1.01-1.98-.51Zm-5.54.02c-.37-.15-.63-.32-.9-.35-.3-.03-.5-.15-.71-.34-1.38-1.26-3.08-.91-3.88.77-.05.11-.08.25-.16.33-.08.08-.26.18-.33.14-.1-.06-.2-.22-.21-.34-.01-.14.08-.28.13-.45-.33-.25-.68-.26-1.04-.08-.38.18-.66.45-.68.9-.04.7.41,1.23,1.2,1.45.75.21,1.14.45,1.75.99.6.53,1.27.96,2.12.97.26,0,.36-.09.36-.36.05-1.44.71-2.53,1.89-3.33.11-.07.22-.15.45-.3Zm10.18,9.31c.31-.15.55-.26.8-.39.55-.29.74-.79.51-1.38-.38-1-.78-1.99-1.15-2.99-.1-.27-.21-.35-.51-.27-.81.23-.81.21-.61,1.02.03.12.06.24.09.36.29,1.19.58,2.39.88,3.65Zm-20.5,0c.33-1.38.65-2.68.97-3.98.2-.83.19-.82-.61-1.05-.28-.08-.4,0-.49.25-.39,1.02-.79,2.04-1.18,3.06-.18.48-.05.96.33,1.21.3.19.62.32.99.51Zm1.11,1.28c.07.07.21.26.25.24.14-.07.31-.19.34-.32.35-1.37.67-2.74,1-4.11.16-.67.34-1.33.47-2,.03-.13-.1-.29-.16-.44-.12.1-.25.19-.36.3-.03.03-.02.1-.03.16-.33,1.36-.65,2.71-.98,4.07-.16.68-.33,1.36-.51,2.11Zm17.71-2.58c-.03-.15-.03-.23-.05-.31-.29-1.23-.59-2.45-.89-3.68-.05-.21-.08-.49-.39-.4-.3.08-.2.35-.15.56.14.6.29,1.2.44,1.8.16.67.31,1.34.5,2,.03.12.2.22.33.27.04.02.16-.17.21-.23Zm.69,2.65c-.13-.48-.23-.91-.37-1.32-.04-.1-.21-.16-.32-.24-.07.13-.2.27-.18.39.08.42.19.83.33,1.23.03.1.22.19.33.19.08,0,.15-.17.22-.25Z"/>
      </g>
      <text class="cls-1" transform="translate(32.39 24.41)"><tspan x="0" y="0">Bee</tspan><tspan class="cls-3" x="57.81" y="0">r</tspan><tspan x="69.98" y="0">lo</tspan></text>
    </g>
  </g>
</svg>